<svg
  width="49"
  height="43"
  viewBox="0 0 49 43"
  fill="none"
  xmlns="http://www.w3.org/2000/svg"
>
  <path
    fillRule="evenodd"
    clipRule="evenodd"
    d="M41.25 16C41.25 20.5563 37.5563 24.25 33 24.25C28.4437 24.25 24.75 20.5563 24.75 16C24.75 11.4437 28.4437 7.75 33 7.75C37.5563 7.75 41.25 11.4437 41.25 16Z"
    stroke="#444444"
    strokeWidth="2"
  />
  <g clipPath="url(#clip0)">
    <line
      x1="47"
      y1="16.25"
      x2="44.5"
      y2="16.25"
      stroke="#F25022"
      strokeWidth="2"
      strokeLinecap="round"
      strokeLinejoin="round"
    />
  </g>
  <g clipPath="url(#clip1)">
    <line
      x1="21.5"
      y1="16.25"
      x2="19"
      y2="16.25"
      stroke="#F25022"
      strokeWidth="2"
      strokeLinecap="round"
      strokeLinejoin="round"
    />
  </g>
  <g clipPath="url(#clip2)">
    <line
      x1="47"
      y1="16.25"
      x2="44.5"
      y2="16.25"
      stroke="#444444"
      strokeWidth="2"
      strokeLinecap="round"
      strokeLinejoin="round"
    />
  </g>
  <g clipPath="url(#clip3)">
    <line
      x1="21.5"
      y1="16.25"
      x2="19"
      y2="16.25"
      stroke="#444444"
      strokeWidth="2"
      strokeLinecap="round"
      strokeLinejoin="round"
    />
  </g>
  <g clipPath="url(#clip4)">
    <line
      x1="44.9993"
      y1="23.2165"
      x2="42.8343"
      y2="21.9665"
      stroke="#444444"
      strokeWidth="2"
      strokeLinecap="round"
      strokeLinejoin="round"
    />
  </g>
  <g clipPath="url(#clip5)">
    <line
      x1="39.7835"
      y1="28.2494"
      x2="38.5335"
      y2="26.0843"
      stroke="#444444"
      strokeWidth="2"
      strokeLinecap="round"
      strokeLinejoin="round"
    />
  </g>
  <g clipPath="url(#clip6)">
    <line
      x1="27.0335"
      y1="6.16571"
      x2="25.7835"
      y2="4.00065"
      stroke="#444444"
      strokeWidth="2"
      strokeLinecap="round"
      strokeLinejoin="round"
    />
  </g>
  <g clipPath="url(#clip7)">
    <line
      x1="32.75"
      y1="30"
      x2="32.75"
      y2="27.5"
      stroke="#444444"
      strokeWidth="2"
      strokeLinecap="round"
      strokeLinejoin="round"
    />
  </g>
  <g clipPath="url(#clip8)">
    <line
      x1="32.75"
      y1="4.5"
      x2="32.75"
      y2="2"
      stroke="#444444"
      strokeWidth="2"
      strokeLinecap="round"
      strokeLinejoin="round"
    />
  </g>
  <g clipPath="url(#clip9)">
    <line
      x1="25.7835"
      y1="27.9994"
      x2="27.0335"
      y2="25.8343"
      stroke="#444444"
      strokeWidth="2"
      strokeLinecap="round"
      strokeLinejoin="round"
    />
  </g>
  <g clipPath="url(#clip10)">
    <line
      x1="38.5335"
      y1="5.91571"
      x2="39.7835"
      y2="3.75065"
      stroke="#444444"
      strokeWidth="2"
      strokeLinecap="round"
      strokeLinejoin="round"
    />
  </g>
  <g clipPath="url(#clip11)">
    <line
      x1="20.7507"
      y1="22.7835"
      x2="22.9157"
      y2="21.5335"
      stroke="#444444"
      strokeWidth="2"
      strokeLinecap="round"
      strokeLinejoin="round"
    />
  </g>
  <g clipPath="url(#clip12)">
    <line
      x1="42.8343"
      y1="10.0335"
      x2="44.9994"
      y2="8.78351"
      stroke="#444444"
      strokeWidth="2"
      strokeLinecap="round"
      strokeLinejoin="round"
    />
  </g>
  <path
    d="M40.5 16C40.5 20.1421 37.1421 23.5 33 23.5C28.8579 23.5 25.5 20.1421 25.5 16C25.5 11.8579 28.8579 8.5 33 8.5C37.1421 8.5 40.5 11.8579 40.5 16Z"
    fill="#FFB900"
  />
  <path
    fillRule="evenodd"
    clipRule="evenodd"
    d="M22.3596 13.798C22.3596 13.798 22.4978 14.5 22.5449 14.5067C25.0902 14.8697 27 16.3544 27 19C27 21.8995 24.6495 24.25 21.75 24.25H8.25C5.3505 24.25 3 21.8995 3 19C3 16.3544 4.95692 14.1658 7.50223 13.8028C7.54939 13.7961 7.59559 13.7947 7.64044 13.798C8.31666 10.3508 11.3546 7.75 15 7.75C18.6454 7.75 21.6833 10.3508 22.3596 13.798Z"
    fill="#F3F3F3"
  />
  <path
    d="M8.64706 24.25C5.52827 24.25 3 21.7876 3 18.75C3 16.0968 4.92887 13.8824 7.49533 13.3645C8.37762 10.1319 11.4032 7.75 15 7.75C19.0661 7.75 22.4023 10.794 22.7371 14.67C25.1451 14.9919 27 17.0037 27 19.4375C27 22.0954 24.7878 24.25 22.0588 24.25H8.64706Z"
    stroke="#444444"
    strokeWidth="2"
    strokeLinecap="round"
    strokeLinejoin="round"
  />
  <path
    fillRule="evenodd"
    clipRule="evenodd"
    d="M33.8127 20.0641C33.8127 20.0641 33.997 21 34.0599 21.009C37.4537 21.4929 40 23.4725 40 27C40 30.866 36.866 34 33 34H15C11.134 34 8 30.866 8 27C8 23.4725 10.6092 20.5544 14.003 20.0705C14.0659 20.0615 14.1275 20.0596 14.1873 20.0641C15.0889 15.4677 19.1395 12 24 12C28.8605 12 32.9111 15.4677 33.8127 20.0641Z"
    fill="#F3F3F3"
  />
  <path
    d="M15.5294 34C11.371 34 8 30.7168 8 26.6667C8 23.1291 10.5718 20.1766 13.9938 19.486C15.1702 15.1758 19.2043 12 24 12C29.4215 12 33.8697 16.0587 34.3161 21.2266C37.5268 21.6559 40 24.3383 40 27.5833C40 31.1272 37.0503 34 33.4118 34H15.5294Z"
    stroke="#444444"
    strokeWidth="2"
    strokeLinecap="round"
    strokeLinejoin="round"
  />
  <defs>
    <clipPath id="clip0">
      <rect x="42.75" y="14.5" width="6" height="3" rx="1.5" fill="white" />
    </clipPath>
    <clipPath id="clip1">
      <rect x="17.25" y="14.5" width="6" height="3" rx="1.5" fill="white" />
    </clipPath>
    <clipPath id="clip2">
      <rect x="42.75" y="14.5" width="6" height="3" rx="1.5" fill="white" />
    </clipPath>
    <clipPath id="clip3">
      <rect x="17.25" y="14.5" width="6" height="3" rx="1.5" fill="white" />
    </clipPath>
    <clipPath id="clip4">
      <rect
        x="42.1937"
        y="19.576"
        width="6"
        height="3"
        rx="1.5"
        transform="rotate(30 42.1937 19.576)"
        fill="white"
      />
    </clipPath>
    <clipPath id="clip5">
      <rect
        x="39.1741"
        y="23.6938"
        width="6"
        height="3"
        rx="1.5"
        transform="rotate(60 39.1741 23.6938)"
        fill="white"
      />
    </clipPath>
    <clipPath id="clip6">
      <rect
        x="26.4241"
        y="1.61011"
        width="6"
        height="3"
        rx="1.5"
        transform="rotate(60 26.4241 1.61011)"
        fill="white"
      />
    </clipPath>
    <clipPath id="clip7">
      <rect
        x="34.5"
        y="25.75"
        width="6"
        height="3"
        rx="1.5"
        transform="rotate(90 34.5 25.75)"
        fill="white"
      />
    </clipPath>
    <clipPath id="clip8">
      <rect
        x="34.5"
        y="0.25"
        width="6"
        height="3"
        rx="1.5"
        transform="rotate(90 34.5 0.25)"
        fill="white"
      />
    </clipPath>
    <clipPath id="clip9">
      <rect
        x="29.4241"
        y="25.1938"
        width="6"
        height="3"
        rx="1.5"
        transform="rotate(120 29.4241 25.1938)"
        fill="white"
      />
    </clipPath>
    <clipPath id="clip10">
      <rect
        x="42.1741"
        y="3.11011"
        width="6"
        height="3"
        rx="1.5"
        transform="rotate(120 42.1741 3.11011)"
        fill="white"
      />
    </clipPath>
    <clipPath id="clip11">
      <rect
        x="25.3063"
        y="22.174"
        width="6"
        height="3"
        rx="1.5"
        transform="rotate(150 25.3063 22.174)"
        fill="white"
      />
    </clipPath>
    <clipPath id="clip12">
      <rect
        x="47.3899"
        y="9.42404"
        width="6"
        height="3"
        rx="1.5"
        transform="rotate(150 47.3899 9.42404)"
        fill="white"
      />
    </clipPath>
  </defs>
</svg>
