<svg width="64" height="72" viewBox="0 0 64 72" fill="none" xmlns="http://www.w3.org/2000/svg">
<path fill-rule="evenodd" clip-rule="evenodd" d="M20 11.3684C20 5.08981 25.3726 0 32 0C38.6274 0 44 5.08982 44 11.3684V13.2632C44 20.5882 37.732 26.5263 30 26.5263H4C1.79086 26.5263 0 24.8297 0 22.7368C0 20.644 1.79086 18.9474 4 18.9474H30C33.3137 18.9474 36 16.4025 36 13.2632V11.3684C36 9.27555 34.2091 7.57895 32 7.57895C29.7909 7.57895 28 9.27555 28 11.3684V12.4019C28 14.4948 26.2091 16.1914 24 16.1914C21.7909 16.1914 20 14.4948 20 12.4019V11.3684ZM36 58.7368C36 66.0619 42.268 72 50 72C57.732 72 64 66.0619 64 58.7368V56.8421C64 48.4706 56.8366 41.6842 48 41.6842H8C5.79086 41.6842 4 43.3808 4 45.4737C4 47.5666 5.79086 49.2632 8 49.2632H48C52.4183 49.2632 56 52.6564 56 56.8421V58.7368C56 61.8761 53.3137 64.4211 50 64.4211C46.6863 64.4211 44 61.8761 44 58.7368V56.8421C44 54.7492 42.2091 53.0526 40 53.0526C37.7909 53.0526 36 54.7492 36 56.8421V58.7368ZM12 30.3158C9.79086 30.3158 8 32.0124 8 34.1053C8 36.1981 9.79086 37.8947 12 37.8947H52C54.2091 37.8947 56 36.1981 56 34.1053C56 32.0124 54.2091 30.3158 52 30.3158H12Z" fill="#1FA4EF"/>
</svg>
