<svg width="441" height="328" viewBox="0 0 441 328" fill="none" xmlns="http://www.w3.org/2000/svg">
<path fill-rule="evenodd" clip-rule="evenodd" d="M354.721 121.729C354.721 121.729 357.246 135.558 358.107 135.69C404.608 142.841 439.497 172.089 439.497 224.207C439.497 281.327 396.556 327.632 343.584 327.632H96.9517C43.9806 327.632 1.03906 281.327 1.03906 224.207C1.03906 172.089 36.7902 128.974 83.2906 121.824C84.1522 121.691 84.9963 121.663 85.8156 121.729C98.1695 53.8186 153.67 2.58357 220.268 2.58357C286.866 2.58357 342.367 53.8186 354.721 121.729Z" fill="#F3F3F3"/>
<path d="M99.5367 326.048C40.4738 326.048 -0.431697 279.124 1.03838 217.699C1.03838 165.432 37.9485 130.18 84.8354 119.976C102.477 57.425 154.557 1 220.267 1C295.063 3.58371 347.988 61.3839 356.808 136.603C403.852 139.77 439.87 181.297 439.87 229.242C439.87 281.602 399.081 326.048 349.226 326.048H99.5367Z" stroke="#C4C4C4" stroke-width="2" stroke-linecap="round" stroke-linejoin="round"/>
</svg>
